<svg xmlns="http://www.w3.org/2000/svg" viewBox="0 0 500 500"><g id="freepik--background-simple--inject-20"><path d="M167.7,63.68l.83,1.26a34,34,0,0,1,1.74,35.15,31.09,31.09,0,0,1-2.65,4.06,35.66,35.66,0,0,1-30.87,13.56c-6.91-.58-14-3.17-20.6-1.22-8.62,2.53-13.15,11.62-16.71,19.8s-8.11,17.27-16.75,19.77c-5.41,1.56-11.34.07-16.32-2.62-13.2-7.12-20.84-22.26-21.18-37.1S51,87.13,59.82,75.26C72.22,58.63,90.66,46,111.35,42.87S154.71,47.26,167.7,63.68Z" style="fill:#f5f5f5"></path><path d="M326.22,69.66l-.83,1.25a34,34,0,0,0-1.74,35.15,32.93,32.93,0,0,0,2.64,4.07,35.74,35.74,0,0,0,30.88,13.56c6.91-.59,14-3.18,20.59-1.23,8.63,2.53,13.16,11.62,16.72,19.81s8.11,17.26,16.75,19.76c5.41,1.56,11.34.07,16.32-2.62,13.19-7.11,20.84-22.26,21.18-37.1S443,93.11,434.1,81.23c-12.4-16.63-30.84-29.31-51.53-32.39S339.21,53.23,326.22,69.66Z" style="fill:#f5f5f5"></path><circle cx="253.08" cy="64.1" r="15.93" transform="translate(-6.33 93.51) rotate(-20.68)" style="fill:#f5f5f5"></circle></g><g id="freepik--Cake--inject-20"><ellipse cx="250" cy="384.42" rx="204.29" ry="46.16" style="fill:#455a64"></ellipse><path d="M52.92,378.58a11.46,11.46,0,0,0,.9,4.14c1,2.59,3.67,5.93,8,9C70.43,398,85,403.61,103.38,408.22,140.26,417.45,192.8,423,250.76,423s110.53-5.58,147.41-14.81c18.39-4.61,32.95-10.23,41.58-16.48,4.31-3.09,6.95-6.43,8-9a11.46,11.46,0,0,0,.9-4.14s0,.37,0,1.09a11,11,0,0,1-.78,3.09,16.29,16.29,0,0,1-2.73,4.39,30.49,30.49,0,0,1-5.22,4.76c-8.64,6.33-23.21,12-41.61,16.66-36.9,9.34-89.48,15-147.5,15s-110.56-5.64-147.47-15c-18.4-4.65-33-10.33-41.61-16.66a30.49,30.49,0,0,1-5.22-4.76,16.36,16.36,0,0,1-2.74-4.39,11.26,11.26,0,0,1-.77-3.09C52.92,379,52.92,378.58,52.92,378.58Z" style="fill:#263238"></path><path d="M240.85,425.37A4.55,4.55,0,0,0,239,425l-20.68-.87c-1.91-.18-3.4-.08-3.94.55a1.28,1.28,0,0,0-.09,2,3.63,3.63,0,0,0,2.14.78,112.6,112.6,0,0,0,22.92.75c1-.07,2.25-.38,2.39-1.37A1.51,1.51,0,0,0,240.85,425.37Z" style="fill:#fff"></path><polygon points="393.51 219.51 393.51 393.79 422.12 376.98 422.12 202.7 393.51 219.51" style="fill:#ffbf9d"></polygon><path d="M393.51,251.44v12.43c18.65-5,28.61-14.62,28.61-16.81V234.64C422.26,234.89,412.16,246.48,393.51,251.44Z" style="fill:#DA3016"></path><g style="opacity:0.8"><path d="M393.51,251.44v12.43c18.65-5,28.61-14.62,28.61-16.81V234.64C422.26,234.89,412.16,246.48,393.51,251.44Z" style="fill:#fff"></path></g><path d="M254.83,377l36.54,29.33c-12,.48-24.25.72-36.54.72-91.77,0-167.29-13.56-167.29-30s75.52-30.05,167.29-30.05S422.12,360.5,422.12,377c0,6-10,11.85-28.61,16.81Z" style="fill:#ffbf9d"></path><path d="M234.4,202.7c0,2.34,57,178.71,57,178.71l102.14,12.38V218.4Z" style="fill:#ffbf9d"></path><polygon points="393.51 371.99 271.4 358.95 273.83 372.26 393.51 384.42 393.51 371.99" style="fill:#DA3016"></polygon><g style="opacity:0.30000000000000004"><polygon points="393.51 371.99 271.4 358.95 273.83 372.26 393.51 384.42 393.51 371.99"></polygon></g><polygon points="393.51 251.44 271.4 238.4 273.83 251.71 393.51 263.87 393.51 251.44" style="fill:#DA3016"></polygon><g style="opacity:0.8"><polygon points="393.51 251.44 271.4 238.4 273.83 251.71 393.51 263.87 393.51 251.44" style="fill:#fff"></polygon></g><polygon points="393.51 281.9 271.4 268.86 273.83 282.17 393.51 294.33 393.51 281.9" style="fill:#DA3016"></polygon><g style="opacity:0.7000000000000001"><polygon points="393.51 281.9 271.4 268.86 273.83 282.17 393.51 294.33 393.51 281.9" style="fill:#fff"></polygon></g><polygon points="393.51 312.44 271.4 299.39 273.83 312.7 393.51 324.86 393.51 312.44" style="fill:#DA3016"></polygon><g style="opacity:0.30000000000000004"><polygon points="393.51 312.44 271.4 299.39 273.83 312.7 393.51 324.86 393.51 312.44" style="fill:#fff"></polygon></g><polygon points="393.51 342.64 271.4 329.6 273.83 342.91 393.51 355.06 393.51 342.64" style="fill:#DA3016"></polygon><g style="opacity:0.30000000000000004"><path d="M234.4,202.7c0,2.34,57,178.71,57,178.71l102.14,12.38V218.4Z"></path></g><polygon points="291.37 232.89 291.37 406.31 87.54 373.95 87.54 203.56 291.37 232.89" style="fill:#ffbf9d"></polygon><path d="M254.83,203.56l36.54,29.33c-12,.48-24.25.72-36.54.72-91.77,0-167.29-13.56-167.29-30.05s75.52-30.05,167.29-30.05,167.29,13.57,167.29,30.05c0,6-10,11.85-28.61,16.81Z" style="fill:#DA3016"></path><path d="M254.83,294.89c-91.77,0-167.29-13.57-167.29-30.06v13.06c0,16.48,75.52,30.05,167.29,30.05,12.29,0,24.55-.25,36.54-.73v-13C279.38,294.64,267.12,294.89,254.83,294.89Z" style="fill:#DA3016"></path><path d="M254.83,325.09c-91.77,0-167.29-13.57-167.29-30.06v13.05c0,16.49,75.52,30.06,167.29,30.06,12.29,0,24.55-.25,36.54-.73V324.36C279.38,324.84,267.12,325.09,254.83,325.09Z" style="fill:#DA3016"></path><g style="opacity:0.30000000000000004"><path d="M254.83,325.09c-91.77,0-167.29-13.57-167.29-30.06v13.05c0,16.49,75.52,30.06,167.29,30.06,12.29,0,24.55-.25,36.54-.73V324.36C279.38,324.84,267.12,325.09,254.83,325.09Z" style="fill:#fff"></path></g><path d="M254.83,264.69c-91.77,0-167.29-13.57-167.29-30.05v13.05c0,16.48,75.52,30.05,167.29,30.05,12.29,0,24.55-.24,36.54-.73V264C279.38,264.44,267.12,264.69,254.83,264.69Z" style="fill:#DA3016"></path><g style="opacity:0.8"><path d="M254.83,264.69c-91.77,0-167.29-13.57-167.29-30.05v13.05c0,16.48,75.52,30.05,167.29,30.05,12.29,0,24.55-.24,36.54-.73V264C279.38,264.44,267.12,264.69,254.83,264.69Z" style="fill:#fff"></path></g><path d="M393.51,282.65v12.43c18.65-5,28.61-14.62,28.61-16.81V265.84C422.26,266.1,412.16,277.68,393.51,282.65Z" style="fill:#DA3016"></path><path d="M393.51,312v12.42c18.65-5,28.61-14.62,28.61-16.81V295.2C422.26,295.45,412.16,307,393.51,312Z" style="fill:#DA3016"></path><path d="M393.51,341.71v12.43c18.65-5,28.61-14.62,28.61-16.81V324.9C422.26,325.16,412.16,336.75,393.51,341.71Z" style="fill:#DA3016"></path><path d="M393.51,371.07v12.42c18.65-5,28.61-14.61,28.61-16.8V354.26C422.26,354.52,412.16,366.1,393.51,371.07Z" style="fill:#DA3016"></path><g style="opacity:0.30000000000000004"><path d="M84.36,207.13Q83,223.77,81.65,240.42c-.27,3.4-.53,7,.81,10.11s4.79,5.68,8.08,4.75c5.4-1.52,6.11-10.33,11.59-11.51a25.2,25.2,0,0,0,2.58,8.19c1.47,2.47,4.05,4.49,6.92,4.48,2.23,0,4.36-1.19,6.57-1,3.19.27,5.47,3.3,6.42,6.35s1,6.34,2.06,9.36a15.07,15.07,0,0,0,28.42.21c1.52-4.19,2.06-10,6.42-11,3.84-.85,7,3.17,10.81,4.09,4.14,1,8.19-1.82,11.24-4.79s6.07-6.45,10.23-7.32c7.13-1.49,13.3,5.41,15.79,12.25s3.24,14.58,7.86,20.21a17.89,17.89,0,0,0,29-1.91c2.64-4.24,4.05-10.1,8.81-11.64,5.39-1.76,10.32,3.46,15.7,5.26,6.1,2.05,13.14-.7,17.27-5.62s5.71-11.61,5.6-18-1.76-12.73-3.39-18.95l-29.08-26.81h-177"></path></g><path d="M84.36,198.62Q83,215.26,81.65,231.91c-.27,3.4-.53,7,.81,10.11s4.79,5.68,8.08,4.75c5.4-1.52,6.11-10.33,11.59-11.51a25.2,25.2,0,0,0,2.58,8.19c1.47,2.47,4.05,4.49,6.92,4.48,2.23,0,4.36-1.19,6.57-1,3.19.27,5.47,3.3,6.42,6.35s1,6.34,2.06,9.36a15.07,15.07,0,0,0,28.42.21c1.52-4.19,2.06-10,6.42-11,3.84-.85,7,3.17,10.81,4.09,4.14,1,8.19-1.82,11.24-4.79s6.07-6.45,10.23-7.32c7.13-1.49,13.3,5.41,15.79,12.25s3.24,14.58,7.86,20.21a17.89,17.89,0,0,0,29-1.91c2.64-4.24,4.05-10.1,8.81-11.64,5.39-1.76,10.32,3.46,15.7,5.27,6.1,2,13.14-.71,17.27-5.63s5.71-11.61,5.6-18-1.76-12.73-3.39-18.95l-29.08-26.81h-177" style="fill:#DA3016"></path><g style="opacity:0.7000000000000001"><path d="M84.36,198.62Q83,215.26,81.65,231.91c-.27,3.4-.53,7,.81,10.11s4.79,5.68,8.08,4.75c5.4-1.52,6.11-10.33,11.59-11.51a25.2,25.2,0,0,0,2.58,8.19c1.47,2.47,4.05,4.49,6.92,4.48,2.23,0,4.36-1.19,6.57-1,3.19.27,5.47,3.3,6.42,6.35s1,6.34,2.06,9.36a15.07,15.07,0,0,0,28.42.21c1.52-4.19,2.06-10,6.42-11,3.84-.85,7,3.17,10.81,4.09,4.14,1,8.19-1.82,11.24-4.79s6.07-6.45,10.23-7.32c7.13-1.49,13.3,5.41,15.79,12.25s3.24,14.58,7.86,20.21a17.89,17.89,0,0,0,29-1.91c2.64-4.24,4.05-10.1,8.81-11.64,5.39-1.76,10.32,3.46,15.7,5.27,6.1,2,13.14-.71,17.27-5.63s5.71-11.61,5.6-18-1.76-12.73-3.39-18.95l-29.08-26.81h-177" style="fill:#fff"></path></g><g style="opacity:0.30000000000000004"><path d="M129,249.1c.9,5.2,1.85,10.54,4.64,15A3.51,3.51,0,0,0,136,266a2.6,2.6,0,0,0,2.55-2.31,7.55,7.55,0,0,0-.67-3.69q-2-5.67-4.09-11.33a4.72,4.72,0,0,0-1-1.83,2.31,2.31,0,0,0-3.88,2" style="fill:#fff"></path></g><g style="opacity:0.30000000000000004"><path d="M233.06,266.78c-1.13-.47-2.4,0-3.62.14-2.72.26-5.27-1.51-7-3.66s-2.79-4.7-4.33-7a7,7,0,0,0-1.48-1.6,1.2,1.2,0,0,0-1.89,1.26,53.92,53.92,0,0,0,5.67,13.39c1.72,2.88,4.09,5.84,7.42,6.25a6.38,6.38,0,0,0,6.77-4.95C234.92,269.16,234.46,267.35,233.06,266.78Z" style="fill:#fff"></path></g><path d="M217.11,234.38c0,.18-1.75.32-4.91.41s-7.72.13-13.36.07a347,347,0,0,1-44.06-2.94,205.4,205.4,0,0,1-23.91-4.77,154.27,154.27,0,0,1-18.9-6.31,110.27,110.27,0,0,1-12.11-5.77c-2.76-1.56-4.21-2.56-4.13-2.7.21-.39,6.36,2.93,16.9,6.76a186.35,186.35,0,0,0,18.83,5.69,238.44,238.44,0,0,0,23.68,4.53c17,2.35,32.51,3.07,43.75,3.67S217.12,234,217.11,234.38Z" style="fill:#fff"></path><path d="M240.35,234.34c0,.72-3.12,1.26-6.94,1.21s-6.91-.68-6.9-1.39,3.11-1.26,6.94-1.21S240.36,233.62,240.35,234.34Z" style="fill:#fff"></path><path d="M283.68,255.48c.25.23-.24,1.37-1.62,2.82a12.63,12.63,0,0,1-6.94,3.7,9.68,9.68,0,0,1-7.75-2.06c-1.6-1.43-1.85-2.8-1.57-2.94s1.12.66,2.63,1.42a10.41,10.41,0,0,0,6.28,1,17,17,0,0,0,6.18-2.56C282.42,255.91,283.4,255.23,283.68,255.48Z" style="fill:#fff"></path><g style="opacity:0.30000000000000004"><path d="M393.51,242.08c.41-1.47.2-2.5,1.08-3.75a4.51,4.51,0,0,1,3.86-2.1,4.77,4.77,0,0,1,3.46,2.42,25.07,25.07,0,0,1,1.72,4c1.11,2.78,3.24,5.59,6.23,5.81a6.61,6.61,0,0,0,5.23-2.44,17.32,17.32,0,0,0,2.83-5.23,96,96,0,0,0,6-24.52s-21.33,2.29-21.9,2.1-8.28,5.34-8.28,5.34Z"></path></g><g style="opacity:0.30000000000000004"><path d="M277.16,213.17c6.72-1.74,12.93,1.13,17.24,6.56,3.79,4.78,5.05,11.29,9.31,15.64a15.35,15.35,0,0,0,16.83,3.14c5.58-2.53,9.92-8.52,16-8.31,4.21.14,7.72,3.35,10,6.9s3.71,7.6,6.16,11a22.47,22.47,0,0,0,40-7.39,22.73,22.73,0,0,0,.52-2.48L391,222l-107.58-16.4-16.69-2Z"></path></g><path d="M84.13,201.39s1.25-15.85,16.16-22.3,77.17-18.74,158.56-18.34S394,175,413.31,183.71c19.6,8.87,12.36,30.76,9.57,44.09-.9,4.3-2,8.85-5.08,11.94s-9,3.74-11.58.15c-1.71-2.43-1.29-5.7-1.8-8.63s-3.15-6.14-5.9-5c-1.82.74-2.47,2.9-3.13,4.74a25.47,25.47,0,0,1-19.33,16.47c-8.76,1.43-18.29-2.64-23-10.18-2.72-4.38-3.81-9.61-6.48-14s-8-8-12.81-6.18c-3.52,1.37-5.42,5.09-8.09,7.76a16,16,0,0,1-25-2.93c-2.72-4.41-3.64-10.48-8.27-12.81-3.09-1.55-6.94-2.28-10.21-1.17-9.69,3.29-14.5-3.47-17.67-6.27" style="fill:#DA3016"></path><g style="opacity:0.7000000000000001"><path d="M84.13,201.39s1.25-15.85,16.16-22.3,77.17-18.74,158.56-18.34S394,175,413.31,183.71c19.6,8.87,12.36,30.76,9.57,44.09-.9,4.3-2,8.85-5.08,11.94s-9,3.74-11.58.15c-1.71-2.43-1.29-5.7-1.8-8.63s-3.15-6.14-5.9-5c-1.82.74-2.47,2.9-3.13,4.74a25.47,25.47,0,0,1-19.33,16.47c-8.76,1.43-18.29-2.64-23-10.18-2.72-4.38-3.81-9.61-6.48-14s-8-8-12.81-6.18c-3.52,1.37-5.42,5.09-8.09,7.76a16,16,0,0,1-25-2.93c-2.72-4.41-3.64-10.48-8.27-12.81-3.09-1.55-6.94-2.28-10.21-1.17-9.69,3.29-14.5-3.47-17.67-6.27" style="fill:#fff"></path></g><path d="M420.09,194.31c.31.14,0,1.71-1.2,4a28.5,28.5,0,0,1-14.72,13c-2.41.89-4,1-4.11.71-.25-.73,5.45-3,10.9-7.87S419.4,194,420.09,194.31Z" style="fill:#fff"></path><g style="opacity:0.2"><path d="M264.73,201.93c3.16,2.79,7.92,9.17,17.5,6,3.28-1.09,7.12-.38,10.21,1.17,4.63,2.33,5.55,8.4,8.27,12.81a16,16,0,0,0,25,2.93c2.67-2.67,4.57-6.39,8.09-7.76,4.81-1.86,10.14,1.77,12.81,6.18s3.76,9.64,6.48,14c4.69,7.54,14.22,11.61,23,10.18s13.43-6.71,17.45-13.84a54.61,54.61,0,0,0,1.05-14.7c-.66-7.07-6-7.16-10.64-7.49S264.73,201.93,264.73,201.93Z"></path></g><g style="opacity:0.30000000000000004"><path d="M390.87,206.44S251.3,192.13,251.62,194.67,285,224.56,280.87,227.1,97.75,230.6,93.93,198.17s156.42-32.37,185.35-32.75c14.62-.19,122.9,9.07,131.62,25.44C415,198.62,390.87,206.44,390.87,206.44Z" style="fill:#fff"></path></g><path d="M254.83,385.48c-91.77,0-167.29-13.56-167.29-30.05v13.05c0,16.49,75.52,30,167.29,30,12.29,0,24.55-.24,36.54-.72V384.76C279.38,385.24,267.12,385.48,254.83,385.48Z" style="fill:#DA3016"></path><path d="M254.83,355.28c-91.77,0-167.29-13.56-167.29-30v13c0,16.49,75.52,30.06,167.29,30.06,12.29,0,24.55-.25,36.54-.73V354.56C279.38,355,267.12,355.28,254.83,355.28Z" style="fill:#DA3016"></path><g style="opacity:0.30000000000000004"><path d="M254.83,385.48c-91.77,0-167.29-13.56-167.29-30.05v13.05c0,16.49,75.52,30,167.29,30,12.29,0,24.55-.24,36.54-.72V384.76C279.38,385.24,267.12,385.48,254.83,385.48Z"></path></g><g style="opacity:0.7000000000000001"><path d="M254.83,294.89c-91.77,0-167.29-13.57-167.29-30.06v13.06c0,16.48,75.52,30.05,167.29,30.05,12.29,0,24.55-.25,36.54-.73v-13C279.38,294.64,267.12,294.89,254.83,294.89Z" style="fill:#fff"></path></g><g style="opacity:0.7000000000000001"><path d="M393.51,282.65v12.43c18.65-5,28.61-14.62,28.61-16.81V265.84C422.26,266.1,412.16,277.68,393.51,282.65Z" style="fill:#fff"></path></g><g style="opacity:0.30000000000000004"><path d="M393.51,312v12.42c18.65-5,28.61-14.62,28.61-16.81V295.2C422.26,295.45,412.16,307,393.51,312Z" style="fill:#fff"></path></g><g style="opacity:0.30000000000000004"><path d="M393.51,371.07v12.42c18.65-5,28.61-14.61,28.61-16.8V354.26C422.26,354.52,412.16,366.1,393.51,371.07Z"></path></g><g style="opacity:0.30000000000000004"><path d="M105.79,369c4.3,4.91,6.9,7.83,13.09,7.9,2.49,0,5.14-.34,7.33.94,4.11,2.4,5,9.64,9.55,10.74,5.25,1.27,9.91-7.19,14.9-5,2.26,1,3.33,3.84,5.23,5.51,2.46,2.17,6,2.15,9,1.39s6-2.14,9.16-2.36c5.12-.37,9.94,2.36,14.88,3.86,10.16,3.09,17.69.2,26.17-6.69Z"></path></g><path d="M102.26,366a23.72,23.72,0,0,0,16.62,7.19c2.49,0,5.14-.31,7.33.85,4.11,2.19,5,8.76,9.55,9.76,5.25,1.16,9.91-6.53,14.9-4.51,2.26.91,3.33,3.48,5.23,5,2.46,2,6,1.94,9,1.26s6-1.95,9.16-2.15c5.12-.34,9.94,2.14,14.88,3.51a35.46,35.46,0,0,0,30-5.55Z" style="fill:#ffbf9d"></path><g style="opacity:0.1"><path d="M107,280.73c4.29,4,6.89,6.37,13.09,6.43,2.49,0,5.13-.28,7.33.77,4.11,1.95,5,7.83,9.54,8.73,5.26,1,9.91-5.85,14.9-4,2.26.82,3.34,3.12,5.24,4.48,2.45,1.76,6,1.75,9,1.13s6-1.74,9.15-1.92c5.12-.3,9.94,1.92,14.89,3.14,10.15,2.52,17.68.16,26.16-5.44Z"></path></g><path d="M103.43,278.32a26.64,26.64,0,0,0,16.63,5.84c2.49,0,5.13-.26,7.33.69,4.11,1.78,5,7.13,9.54,7.94,5.26.94,9.91-5.31,14.9-3.67,2.26.74,3.34,2.83,5.24,4.07,2.45,1.6,6,1.59,9,1s6-1.58,9.15-1.75c5.12-.27,9.94,1.75,14.89,2.86,10.15,2.28,21.55.57,30-4.52Z" style="fill:#ffbf9d"></path><g style="opacity:0.30000000000000004"><path d="M192.42,352a33.68,33.68,0,0,0,6.76,7.39c3.42,3,5.82,5.65,9.53,3,1.59-1.13,2.56-3.07,4.34-3.9,2.19-1,4.79,0,6.79,1.41s3.85,3.12,6.21,3.65c5.08,1.16,9.57-3.66,14.72-4.44,4.11-.61,8.12,1.4,12.23,2s8-3.59,8.25-7.74Z"></path></g><path d="M184.72,350.24l3.19.09A7.44,7.44,0,0,0,184.72,350.24Z" style="fill:#ffbf9d"></path><path d="M187.91,350.33c3.16.76,6,3.36,8.6,5.6,3.41,3,8.49,5.65,12.2,3,1.59-1.13,2.56-3.07,4.34-3.9,2.19-1,4.79,0,6.79,1.4s3.85,3.13,6.21,3.66c5.08,1.15,9.57-3.66,14.72-4.44,4.11-.62,8.12,1.4,12.23,2s9.4-1.22,9.68-5.37Z" style="fill:#ffbf9d"></path><g style="opacity:0.30000000000000004"><path d="M131.7,350.49a2.86,2.86,0,0,0-3.74-1.94c-1.69.77-2,1.85-2,2.51a3,3,0,0,0,3.19,2.85A3,3,0,0,0,131.7,350.49Z"></path></g><g style="opacity:0.30000000000000004"><path d="M186,359.11c-1.56-1-3.52-.54-3.82.89a3.28,3.28,0,0,0,1.06,3.2c1.42,1.22,3.52,1.31,4.3.18S187.58,360.1,186,359.11Z"></path></g><g style="opacity:0.30000000000000004"><path d="M229.09,391.22c-1.56-1-3.52-.55-3.81.88a3.28,3.28,0,0,0,1.05,3.21c1.42,1.21,3.53,1.31,4.3.17S230.65,392.21,229.09,391.22Z"></path></g><g style="opacity:0.30000000000000004"><path d="M275.85,391a2.53,2.53,0,0,0-3.7,1.2,2.78,2.78,0,0,0,.71,3,2.89,2.89,0,0,0,4.07-.22A3,3,0,0,0,275.85,391Z"></path></g><g style="opacity:0.30000000000000004"><path d="M102.17,371.73a2.53,2.53,0,0,0-3.7,1.2,2.77,2.77,0,0,0,.71,3,2.89,2.89,0,0,0,4.07-.22A3,3,0,0,0,102.17,371.73Z"></path></g><g style="opacity:0.30000000000000004"><path d="M134.84,320.23c-1.55-1-3.52-.55-3.81.88a3.3,3.3,0,0,0,1.05,3.21c1.42,1.21,3.53,1.31,4.31.17S136.4,321.22,134.84,320.23Z"></path></g><g style="opacity:0.30000000000000004"><path d="M233.65,299.1c-1.56-1-3.53-.55-3.82.88a3.28,3.28,0,0,0,1.06,3.21c1.41,1.21,3.52,1.31,4.3.17S235.21,300.09,233.65,299.1Z"></path></g><g style="opacity:0.30000000000000004"><path d="M197,268.86c-1.56-1-3.53-.54-3.82.89a3.26,3.26,0,0,0,1.06,3.2c1.41,1.21,3.52,1.31,4.3.17S198.56,269.85,197,268.86Z"></path></g><g style="opacity:0.30000000000000004"><path d="M317.77,280.71c-1.55-1-3.52-.54-3.81.89a3.28,3.28,0,0,0,1.05,3.2c1.42,1.21,3.53,1.31,4.31.18S319.33,281.7,317.77,280.71Z"></path></g><g style="opacity:0.30000000000000004"><path d="M229.16,330.6c-.33.89.58,2.38,1.79,2.88,1.42.56,2,.22,2.23-.08.55-.75,0-2.22-1.09-3S229.5,329.7,229.16,330.6Z"></path></g><g style="opacity:0.30000000000000004"><path d="M335.23,254c-.34.9.58,2.38,1.79,2.88,1.42.57,2,.23,2.23-.08.55-.75,0-2.22-1.1-3S335.56,253.07,335.23,254Z"></path></g><g style="opacity:0.30000000000000004"><path d="M270.5,361.77c-1.09,1.48-.78,3.47.62,3.86a3.26,3.26,0,0,0,3.27-.83c1.31-1.33,1.55-3.43.47-4.28S271.6,360.28,270.5,361.77Z"></path></g><g style="opacity:0.30000000000000004"><path d="M365.9,318.65c1.5,1.08,3.49.75,3.86-.66a3.25,3.25,0,0,0-.87-3.26c-1.34-1.3-3.44-1.52-4.28-.43S364.4,317.57,365.9,318.65Z"></path></g><g style="opacity:0.30000000000000004"><path d="M403.46,343.19c-1.1,1.49-.79,3.48.62,3.87a3.3,3.3,0,0,0,3.27-.83c1.31-1.33,1.55-3.43.47-4.28S404.55,341.71,403.46,343.19Z"></path></g><g style="opacity:0.30000000000000004"><path d="M411.91,278.35a2.42,2.42,0,0,0,.94,3.55,2.54,2.54,0,0,0,2.85-.42,2.5,2.5,0,1,0-3.79-3.13Z"></path></g><g style="opacity:0.30000000000000004"><path d="M403.07,375.12c-.41.55-.3,1.29.23,1.44a1.24,1.24,0,0,0,1.22-.31c.49-.5.58-1.28.17-1.6A1.27,1.27,0,0,0,403.07,375.12Z"></path></g><g style="opacity:0.30000000000000004"><path d="M407.68,369.49c-.41.55-.29,1.29.23,1.44a1.24,1.24,0,0,0,1.22-.31c.49-.5.58-1.28.18-1.6A1.28,1.28,0,0,0,407.68,369.49Z"></path></g><g style="opacity:0.30000000000000004"><path d="M309.6,340.77c-1.1,1.48-.79,3.48.62,3.87a3.29,3.29,0,0,0,3.27-.84c1.31-1.33,1.55-3.43.47-4.28S310.69,339.28,309.6,340.77Z"></path></g><g style="opacity:0.30000000000000004"><path d="M123.79,352.77a1.6,1.6,0,0,0-2.1-1.08c-1,.43-1.11,1-1.1,1.4a1.72,1.72,0,0,0,1.79,1.6A1.67,1.67,0,0,0,123.79,352.77Z"></path></g><g style="opacity:0.30000000000000004"><path d="M100.56,341.9a1.61,1.61,0,0,0-2.1-1.08c-.95.43-1.11,1-1.1,1.4a1.72,1.72,0,0,0,1.79,1.6A1.66,1.66,0,0,0,100.56,341.9Z"></path></g><g style="opacity:0.30000000000000004"><path d="M191.53,357.24a1.61,1.61,0,0,0-2.1-1.09c-1,.44-1.11,1-1.1,1.41a1.71,1.71,0,0,0,1.79,1.59A1.65,1.65,0,0,0,191.53,357.24Z"></path></g><g style="opacity:0.30000000000000004"><path d="M415.74,337.77a1.6,1.6,0,0,0-2.09-1.08c-.95.43-1.11,1-1.1,1.4a1.7,1.7,0,0,0,1.78,1.6A1.66,1.66,0,0,0,415.74,337.77Z"></path></g><g style="opacity:0.30000000000000004"><path d="M410.63,284.59a1.07,1.07,0,0,0-1.39-.72c-.63.29-.74.69-.73.93a1.14,1.14,0,0,0,1.19,1.07A1.11,1.11,0,0,0,410.63,284.59Z"></path></g><g style="opacity:0.30000000000000004"><path d="M402.4,316.82a1.06,1.06,0,0,0-1.39-.72c-.64.28-.74.69-.74.93a1.13,1.13,0,0,0,1.19,1.06A1.09,1.09,0,0,0,402.4,316.82Z"></path></g><g style="opacity:0.30000000000000004"><path d="M238.75,390.75a1.6,1.6,0,0,0-2.09-1.08c-.95.43-1.11,1-1.1,1.4a1.72,1.72,0,0,0,1.79,1.6A1.65,1.65,0,0,0,238.75,390.75Z"></path></g><g style="opacity:0.30000000000000004"><path d="M144.32,325.32a1.6,1.6,0,0,0-2.09-1.08c-.95.43-1.12,1-1.1,1.4a1.7,1.7,0,0,0,1.78,1.6A1.65,1.65,0,0,0,144.32,325.32Z"></path></g><g style="opacity:0.30000000000000004"><path d="M352,314.67a1.6,1.6,0,0,0-2.09-1.09c-.95.44-1.11,1-1.1,1.41a1.71,1.71,0,0,0,1.78,1.6A1.66,1.66,0,0,0,352,314.67Z"></path></g><g style="opacity:0.30000000000000004"><path d="M220.38,303a1.6,1.6,0,0,0-2.09-1.08c-.95.43-1.11,1-1.1,1.4a1.71,1.71,0,0,0,1.79,1.6A1.65,1.65,0,0,0,220.38,303Z"></path></g><g style="opacity:0.30000000000000004"><path d="M197.83,362.89a.85.85,0,0,0-1.1-.57c-.5.23-.59.55-.58.74a.89.89,0,0,0,.94.84A.86.86,0,0,0,197.83,362.89Z"></path></g><g style="opacity:0.30000000000000004"><path d="M243.14,394.8a.86.86,0,0,0-1.11-.57c-.5.23-.58.55-.58.74a.91.91,0,0,0,1,.84A.87.87,0,0,0,243.14,394.8Z"></path></g><g style="opacity:0.30000000000000004"><path d="M277.23,303.2a.85.85,0,0,0-1.11-.58c-.5.23-.58.55-.58.74a.92.92,0,0,0,.95.85A.88.88,0,0,0,277.23,303.2Z"></path></g><path d="M191.15,322.81a1.52,1.52,0,0,1-.48,0H189.3c-1.2,0-2.93-.06-5.06-.16-4.26-.21-10.14-.67-16.61-1.42s-12.3-1.65-16.51-2.38c-2.1-.37-3.79-.69-5-.93l-1.35-.29a1.53,1.53,0,0,1-.46-.14,1.73,1.73,0,0,1,.48,0l1.36.19,5,.76c4.22.64,10,1.48,16.51,2.23S180,322,184.27,322.31l5,.33,1.37.1A1.65,1.65,0,0,1,191.15,322.81Z" style="fill:#fff"></path><path d="M178.55,351.82a13.26,13.26,0,0,1-2.78.07c-1.71,0-4.08-.17-6.69-.44s-5-.61-6.64-.92a12.68,12.68,0,0,1-2.71-.63,17.69,17.69,0,0,1,2.76.27c1.7.21,4,.5,6.64.77s5,.45,6.66.58A17.37,17.37,0,0,1,178.55,351.82Z" style="fill:#fff"></path><path d="M244.4,384.94a18.72,18.72,0,0,1-3.21.27c-2,.09-4.74.15-7.77.12s-5.78-.17-7.77-.31a17.37,17.37,0,0,1-3.2-.35,21.55,21.55,0,0,1,3.22,0l7.75.15,7.76,0A20.89,20.89,0,0,1,244.4,384.94Z" style="fill:#fff"></path><path d="M316.08,163c-.21,11.57-12.32,21.77-23.88,21.57a21,21,0,0,1-20.57-21.32c.21-11.56,11.81-21.5,23.37-21.3S316.28,151.46,316.08,163Z" style="fill:#DA3016"></path><path d="M305.69,149.61c-.4,1.74-3.44,2.54-6.8,1.78s-5.76-2.78-5.37-4.52,3.43-2.54,6.79-1.79S306.08,147.87,305.69,149.61Z" style="fill:#fff"></path><g style="opacity:0.2"><path d="M306.14,166.22c-5.91,5.3-34.31-4.78-34.32-5.2a17.07,17.07,0,0,0-.19,2.25,21,21,0,0,0,20.57,21.32c11.56.2,23.67-10,23.88-21.57a19.89,19.89,0,0,0-2.84-10.59C312.8,154.68,311.07,161.81,306.14,166.22Z" style="fill:#fff"></path></g><g style="opacity:0.30000000000000004"><path d="M280.92,153.52s3.68-1.52,6-.84a24.82,24.82,0,0,1,2.33-6.07S281.73,148.22,280.92,153.52Z"></path></g><path d="M213.5,177.12c-7.4,8.89-23.22,9.28-32.12,1.88a21,21,0,0,1-2.7-29.5c7.4-8.89,22.67-9.39,31.57-2S220.9,168.23,213.5,177.12Z" style="fill:#DA3016"></path><path d="M213.8,160.16c-1.4,1.11-4.27-.17-6.42-2.86s-2.75-5.78-1.36-6.89,4.27.16,6.42,2.86S215.2,159,213.8,160.16Z" style="fill:#fff"></path><g style="opacity:0.2"><path d="M203.76,173.4c-7.93.43-23.77-25.21-23.52-25.54a18.64,18.64,0,0,0-1.56,1.64,21,21,0,0,0,2.7,29.5c8.9,7.4,24.72,7,32.12-1.88a19.89,19.89,0,0,0,4.43-10C216.18,168.56,210.37,173,203.76,173.4Z" style="fill:#fff"></path></g><g style="opacity:0.30000000000000004"><path d="M192,147.71s3.81,1.11,5.18,3.07a25.39,25.39,0,0,1,5.61-3.27S196,144.08,192,147.71Z"></path></g><g style="opacity:0.30000000000000004"><path d="M306.1,188.79c-2.12-2.65-5.15-4.39-8.1-6.06l-119,6.54c-.89,7.81,3.94,15.43,10.42,19.89s14.38,6.29,22.14,7.59c22.14,3.7,46.46,2.86,68.61-.79l-10.46-9.77c5-2.38,11.42-3,17-2.63,3.55.23,7.81,1.07,11.45,1s7.86-3.08,9.52-6.32C309.23,195.26,308.21,191.44,306.1,188.79Z"></path></g><path d="M303.8,192a23.87,23.87,0,0,0-23.13-27.62c3.89-11.22-1.26-24.86-11.6-30.71-3.94-2.23-8.44-3.4-12.24-5.85s-6.95-6.89-5.88-11.29c1-4.22,5.64-7.37,4.43-12a6.88,6.88,0,0,0-4.59-4.58c-3.9-1.31-7.85,0-11.47,1.58-9.23,3.94-18,9.57-24,17.6s-9,18.71-6.29,28.37a20.4,20.4,0,0,0-20,24.36,12.59,12.59,0,0,0-9.67,8,18.05,18.05,0,0,0-.93,4.69,22.38,22.38,0,0,0,10,20c8.24,5.55,23.57,11.42,50.45,9C286.3,209.18,303.8,192,303.8,192Z" style="fill:#DA3016"></path><g style="opacity:0.9"><path d="M303.8,192a23.87,23.87,0,0,0-23.13-27.62c3.89-11.22-1.26-24.86-11.6-30.71-3.94-2.23-8.44-3.4-12.24-5.85s-6.95-6.89-5.88-11.29c1-4.22,5.64-7.37,4.43-12a6.88,6.88,0,0,0-4.59-4.58c-3.9-1.31-7.85,0-11.47,1.58-9.23,3.94-18,9.57-24,17.6s-9,18.71-6.29,28.37a20.4,20.4,0,0,0-20,24.36,12.59,12.59,0,0,0-9.67,8,18.05,18.05,0,0,0-.93,4.69,22.38,22.38,0,0,0,10,20c8.24,5.55,23.57,11.42,50.45,9C286.3,209.18,303.8,192,303.8,192Z" style="fill:#fff"></path></g><g style="opacity:0.1"><path d="M209,147.52c-1.22,9.13,7.31,18.9,16,23.13s18.85,4.1,28.52,3.36,19.51-2,28.93.31,19.63,8.1,21.3,17.65c-6.81-5.27-16.72-6.48-25.31-6.88s-17.17.86-25.72,1.85a85.29,85.29,0,0,1-25-.89c-8.48-1.47-15.38-4.47-20.68-11.25s-6.66-19.34-2.37-26.8A12.74,12.74,0,0,1,209,147.52Z" style="fill:#DA3016"></path></g><g style="opacity:0.1"><path d="M266.16,153.33c-13-2.32-19.91-4-26-10.55-4.23-4.52-5.17-11.39-3.82-17.44s4.67-11.44,8.14-16.57a38.49,38.49,0,0,0-18.72,28.28c-.57,4.75-.19,9.78,2.15,14,4,7.19,11.56,9.11,19.73,10.17,14.37,1.88,28.28-3.13,33.64,3.14h0C280.89,157.81,272.58,154.47,266.16,153.33Z" style="fill:#DA3016"></path></g><g style="opacity:0.1"><path d="M264.62,195.7c-7.28.11-14.47,1.52-21.71,2.26-10.8,1.11-22,.65-32.08-3.43S192,182.34,189,171.89l-2.23.63c-1.5,11.53,3.46,20.32,12.52,27.6s21.23,10.17,32.81,9c11.08-1.08,21.85-4.12,32.95-5a21.31,21.31,0,0,1,11.45,2.12l10.27-4.07C280.77,198,271.9,195.59,264.62,195.7Z" style="fill:#DA3016"></path></g><path d="M212.68,216.73c1.58-2.45-4.42-9.79-8.25-6.72-3.25,2.61-8,7.36-3.87,8.64S211.61,218.4,212.68,216.73Z" style="fill:#DA3016"></path><path d="M183.51,209.45c1.57-2.44-4.42-9.79-8.25-6.72-3.25,2.61-3.33,5.84.81,7.11S182.44,211.12,183.51,209.45Z" style="fill:#DA3016"></path><path d="M328.15,179.44c.66-2.83-7.45-7.74-10-3.57-2.19,3.55-1.18,6.62,3.15,6.43S327.7,181.37,328.15,179.44Z" style="fill:#ff9a6c"></path><path d="M146.1,208.3c1.19-1.86-3.36-7.44-6.27-5.11-2.47,2-6.09,5.6-2.94,6.57S145.29,209.56,146.1,208.3Z" style="fill:#DA3016"></path><path d="M165,186.05c1.19-1.86-3.36-7.43-6.27-5.1-2.47,2-6.09,5.59-2.94,6.56S164.21,187.32,165,186.05Z" style="fill:#DA3016"></path><path d="M359.81,190.87c1.8-2.81-5.08-11.24-9.47-7.71-3.73,3-9.2,8.44-4.45,9.91S358.58,192.78,359.81,190.87Z" style="fill:#DA3016"></path><path d="M224.18,215.75a3.64,3.64,0,0,0-3.61-.55,4.13,4.13,0,0,0-2.48,2.13,2.76,2.76,0,0,0,1.65,3.11,6.93,6.93,0,0,0,3.78.31,2.68,2.68,0,0,0,1.25-.37,2,2,0,0,0,.74-1.33A3.44,3.44,0,0,0,224.18,215.75Z" style="fill:#ff9a6c"></path><path d="M380.74,192.77a3.64,3.64,0,0,0-3.61-.56,4.18,4.18,0,0,0-2.48,2.14,2.75,2.75,0,0,0,1.65,3.1,6.83,6.83,0,0,0,3.78.32,2.58,2.58,0,0,0,1.25-.38,2,2,0,0,0,.74-1.32A3.46,3.46,0,0,0,380.74,192.77Z" style="fill:#ff9a6c"></path><path d="M167.74,194.45a3.64,3.64,0,0,0-3.61-.56,4.18,4.18,0,0,0-2.48,2.14,2.75,2.75,0,0,0,1.65,3.1,7,7,0,0,0,3.78.32,2.58,2.58,0,0,0,1.25-.38,2,2,0,0,0,.74-1.32A3.44,3.44,0,0,0,167.74,194.45Z" style="fill:#ff9a6c"></path><path d="M319.4,186.35a3.6,3.6,0,0,0-3.6-.56,4.21,4.21,0,0,0-2.49,2.13A2.78,2.78,0,0,0,315,191a7,7,0,0,0,3.78.32A2.85,2.85,0,0,0,320,191a2,2,0,0,0,.74-1.32A3.45,3.45,0,0,0,319.4,186.35Z" style="fill:#ff9a6c"></path><path d="M217.7,210.68a2.49,2.49,0,0,0-2.17,1.21,2.83,2.83,0,0,0-.43,2.18,1.88,1.88,0,0,0,2.18,1,4.63,4.63,0,0,0,2.15-1.41,1.73,1.73,0,0,0,.51-.72,1.32,1.32,0,0,0-.15-1A2.37,2.37,0,0,0,217.7,210.68Z" style="fill:#ff9a6c"></path><path d="M161.76,208.66a2.46,2.46,0,0,0-2.16,1.21,2.79,2.79,0,0,0-.44,2.18,1.87,1.87,0,0,0,2.18,1,4.63,4.63,0,0,0,2.15-1.4,1.82,1.82,0,0,0,.52-.72,1.36,1.36,0,0,0-.16-1A2.36,2.36,0,0,0,161.76,208.66Z" style="fill:#ff9a6c"></path><path d="M129.48,196.4a1.17,1.17,0,0,0-1,.58,1.29,1.29,0,0,0-.21,1,.89.89,0,0,0,1,.47,2.22,2.22,0,0,0,1-.67.81.81,0,0,0,.25-.34.69.69,0,0,0-.07-.49A1.14,1.14,0,0,0,129.48,196.4Z" style="fill:#ff9a6c"></path><path d="M145.9,192.41a2.46,2.46,0,0,0-2.17,1.2,2.84,2.84,0,0,0-.44,2.18,1.87,1.87,0,0,0,2.18,1,4.82,4.82,0,0,0,2.16-1.41,1.9,1.9,0,0,0,.51-.72,1.4,1.4,0,0,0-.15-1A2.34,2.34,0,0,0,145.9,192.41Z" style="fill:#ff9a6c"></path><path d="M332.66,185.66a2.49,2.49,0,0,0-2.17,1.21,2.88,2.88,0,0,0-.44,2.18,1.87,1.87,0,0,0,2.18,1,4.71,4.71,0,0,0,2.16-1.4,1.76,1.76,0,0,0,.51-.73,1.34,1.34,0,0,0-.15-1A2.36,2.36,0,0,0,332.66,185.66Z" style="fill:#ff9a6c"></path><path d="M251.88,186.4c-9.6,6.44-24.9,2.34-31.34-7.26a21,21,0,0,1,5.73-29.06c9.61-6.45,24.4-2.61,30.84,7S261.49,180,251.88,186.4Z" style="fill:#DA3016"></path><path d="M257,170.21c-1.66.67-4-1.37-5.35-4.55s-1-6.33.64-7,4,1.36,5.34,4.55S258.61,169.53,257,170.21Z" style="fill:#fff"></path><g style="opacity:0.2"><path d="M243.58,180.08c-7.72-1.82-15.68-30.89-15.35-31.14a17.52,17.52,0,0,0-2,1.14,21,21,0,0,0-5.73,29.06c6.44,9.6,21.74,13.7,31.34,7.26A19.88,19.88,0,0,0,259,178C256.86,178.94,250,181.6,243.58,180.08Z" style="fill:#fff"></path></g><g style="opacity:0.30000000000000004"><path d="M239.59,152.13s3.35,2.14,4.1,4.41A25,25,0,0,1,250,155S244.4,149.76,239.59,152.13Z"></path></g><path d="M273.58,105.67s-14.65,3.09-22.07,19.54a90.28,90.28,0,0,0-7.82,31.33l1.15-.41s2.83-26.6,14-36.8,17.21-10,17.21-10Z" style="fill:#263238"></path></g></svg>
